<mxfile host="app.diagrams.net" modified="2023-06-28T14:03:37.229Z" agent="Mozilla/5.0 (Windows NT 10.0; Win64; x64) AppleWebKit/537.36 (KHTML, like Gecko) Chrome/114.0.0.0 Safari/537.36" version="21.5.1" etag="ExBT8pXVI4K0MHaCHj9F" type="github">
  <diagram name="PÃ¡gina-1" id="MKt_f5XK8TULMKlz5i1f">
    <mxGraphModel>
      <root>
        <mxCell id="0" />
        <mxCell id="1" parent="0" />
      </root>
    </mxGraphModel>
  </diagram>
</mxfile>
